<svg xmlns="http://www.w3.org/2000/svg" viewBox="0 0 1600 400" preserveAspectRatio="xMidYMid slice">
  <defs>
    <linearGradient id="abg" x1="0" y1="0" x2="0" y2="1">
      <stop offset="0" stop-color="#06121a"/>
      <stop offset="1" stop-color="#0a1f1c"/>
    </linearGradient>
    <linearGradient id="a1" x1="0" y1="0" x2="1" y2="1">
      <stop offset="0" stop-color="#2fae8f" stop-opacity="0"/>
      <stop offset="0.5" stop-color="#3fd8a4" stop-opacity="0.7"/>
      <stop offset="1" stop-color="#2f6bb0" stop-opacity="0"/>
    </linearGradient>
    <linearGradient id="a2" x1="0" y1="0" x2="1" y2="1">
      <stop offset="0" stop-color="#7a51c2" stop-opacity="0"/>
      <stop offset="0.5" stop-color="#9a6ee0" stop-opacity="0.6"/>
      <stop offset="1" stop-color="#3fd8a4" stop-opacity="0"/>
    </linearGradient>
    <filter id="blur"><feGaussianBlur stdDeviation="26"/></filter>
  </defs>

  <rect width="1600" height="400" fill="url(#abg)"/>
  <g filter="url(#blur)">
    <path d="M -100 260 C 300 120 500 300 800 180 C 1100 60 1300 240 1700 140 L 1700 400 L -100 400 Z" fill="url(#a1)"/>
    <path d="M -100 320 C 250 220 600 360 950 250 C 1250 160 1450 300 1700 230 L 1700 400 L -100 400 Z" fill="url(#a2)"/>
  </g>
  <g fill="#ffffff">
    <circle cx="200" cy="70" r="1.4" opacity="0.8"/>
    <circle cx="500" cy="50" r="1.1" opacity="0.6"/>
    <circle cx="820" cy="80" r="1.6" opacity="0.85"/>
    <circle cx="1150" cy="55" r="1.1" opacity="0.6"/>
    <circle cx="1380" cy="90" r="1.5" opacity="0.8"/>
    <circle cx="1000" cy="40" r="1" opacity="0.5"/>
    <circle cx="360" cy="110" r="1" opacity="0.5"/>
  </g>
</svg>
